<mxfile host="Electron" modified="2024-05-14T16:38:16.112Z" agent="Mozilla/5.0 (Windows NT 10.0; Win64; x64) AppleWebKit/537.36 (KHTML, like Gecko) draw.io/24.2.5 Chrome/120.0.6099.109 Electron/28.1.0 Safari/537.36" etag="KRscA3kvsu306xG4OobB" version="24.2.5" type="device">
  <diagram name="Sayfa -1" id="wc9GZebun-6Gz2qRI7ti">
    <mxGraphModel dx="1434" dy="844" grid="1" gridSize="10" guides="1" tooltips="1" connect="1" arrows="1" fold="1" page="1" pageScale="1" pageWidth="827" pageHeight="1169" math="0" shadow="0">
      <root>
        <mxCell id="0" />
        <mxCell id="1" parent="0" />
        <mxCell id="PhJZ9zm9h-7gy4Xe6_vl-2" value="" style="verticalLabelPosition=bottom;verticalAlign=top;html=1;shadow=0;dashed=0;strokeWidth=1;shape=mxgraph.ios.iPhone;bgStyle=bgGreen;fillColor=#aaaaaa;sketch=0;" vertex="1" parent="1">
          <mxGeometry x="220" y="60" width="450" height="730" as="geometry" />
        </mxCell>
        <mxCell id="PhJZ9zm9h-7gy4Xe6_vl-24" value="" style="verticalLabelPosition=bottom;verticalAlign=top;html=1;shadow=0;dashed=0;strokeWidth=1;shape=mxgraph.ios.iBgMap;strokeColor=#18211b;strokeColor2=#008cff;fillColor2=#96D1FF;fillColor=#000000;" vertex="1" parent="1">
          <mxGeometry x="249.15" y="170" width="391.7" height="510" as="geometry" />
        </mxCell>
        <mxCell id="PhJZ9zm9h-7gy4Xe6_vl-12" value="" style="sketch=0;html=1;aspect=fixed;strokeColor=none;shadow=0;fillColor=#CC0066;verticalAlign=top;labelPosition=center;verticalLabelPosition=bottom;shape=mxgraph.gcp2.maps_api;fillStyle=auto;" vertex="1" parent="1">
          <mxGeometry x="329.99999999999994" y="312.5" width="18.3" height="30" as="geometry" />
        </mxCell>
        <mxCell id="PhJZ9zm9h-7gy4Xe6_vl-13" value="" style="sketch=0;html=1;aspect=fixed;strokeColor=none;shadow=0;fillColor=#CC0066;verticalAlign=top;labelPosition=center;verticalLabelPosition=bottom;shape=mxgraph.gcp2.maps_api;fillStyle=auto;" vertex="1" parent="1">
          <mxGeometry x="570" y="530" width="18.3" height="30" as="geometry" />
        </mxCell>
        <mxCell id="PhJZ9zm9h-7gy4Xe6_vl-14" value="" style="sketch=0;html=1;aspect=fixed;strokeColor=none;shadow=0;fillColor=#CC0066;verticalAlign=top;labelPosition=center;verticalLabelPosition=bottom;shape=mxgraph.gcp2.maps_api;fillStyle=auto;" vertex="1" parent="1">
          <mxGeometry x="418.29999999999995" y="370" width="18.3" height="30" as="geometry" />
        </mxCell>
        <mxCell id="PhJZ9zm9h-7gy4Xe6_vl-15" value="" style="sketch=0;html=1;aspect=fixed;strokeColor=none;shadow=0;fillColor=#CC0066;verticalAlign=top;labelPosition=center;verticalLabelPosition=bottom;shape=mxgraph.gcp2.maps_api;fillStyle=auto;" vertex="1" parent="1">
          <mxGeometry x="300" y="260" width="18.3" height="30" as="geometry" />
        </mxCell>
        <mxCell id="PhJZ9zm9h-7gy4Xe6_vl-16" value="" style="sketch=0;html=1;aspect=fixed;strokeColor=none;shadow=0;fillColor=#CC0066;verticalAlign=top;labelPosition=center;verticalLabelPosition=bottom;shape=mxgraph.gcp2.maps_api;fillStyle=auto;" vertex="1" parent="1">
          <mxGeometry x="498.29999999999995" y="335" width="18.3" height="30" as="geometry" />
        </mxCell>
        <mxCell id="PhJZ9zm9h-7gy4Xe6_vl-17" value="" style="sketch=0;html=1;aspect=fixed;strokeColor=none;shadow=0;fillColor=#CC0066;verticalAlign=top;labelPosition=center;verticalLabelPosition=bottom;shape=mxgraph.gcp2.maps_api;fillStyle=auto;" vertex="1" parent="1">
          <mxGeometry x="379.9999999999999" y="520" width="18.3" height="30" as="geometry" />
        </mxCell>
        <mxCell id="PhJZ9zm9h-7gy4Xe6_vl-19" value="" style="sketch=0;html=1;aspect=fixed;strokeColor=none;shadow=0;fillColor=#CC0066;verticalAlign=top;labelPosition=center;verticalLabelPosition=bottom;shape=mxgraph.gcp2.maps_api;fillStyle=auto;" vertex="1" parent="1">
          <mxGeometry x="429.9999999999999" y="280" width="18.3" height="30" as="geometry" />
        </mxCell>
        <mxCell id="PhJZ9zm9h-7gy4Xe6_vl-20" value="" style="sketch=0;html=1;aspect=fixed;strokeColor=none;shadow=0;fillColor=#CC0066;verticalAlign=top;labelPosition=center;verticalLabelPosition=bottom;shape=mxgraph.gcp2.maps_api;fillStyle=auto;" vertex="1" parent="1">
          <mxGeometry x="454.8999999999999" y="600" width="18.3" height="30" as="geometry" />
        </mxCell>
        <mxCell id="PhJZ9zm9h-7gy4Xe6_vl-21" value="&lt;b&gt;&lt;font style=&quot;font-size: 14px;&quot;&gt;Bana Ã–zel&lt;/font&gt;&lt;/b&gt;" style="strokeWidth=1;html=1;shadow=1;dashed=0;shape=mxgraph.ios.iTextInput;buttonText=;fontSize=8;whiteSpace=wrap;align=left;fillColor=#000000;fontColor=#FFFFFF;strokeColor=#FFFFFF;gradientColor=none;textShadow=1;" vertex="1" parent="1">
          <mxGeometry x="556.7" y="295" width="76.8" height="15" as="geometry" />
        </mxCell>
        <mxCell id="PhJZ9zm9h-7gy4Xe6_vl-23" value="&lt;b style=&quot;forced-color-adjust: none; font-family: Helvetica; font-style: normal; font-variant-ligatures: normal; font-variant-caps: normal; letter-spacing: normal; orphans: 2; text-align: center; text-indent: 0px; text-transform: none; widows: 2; word-spacing: 0px; -webkit-text-stroke-width: 0px; white-space: normal; text-decoration-thickness: initial; text-decoration-style: initial; text-decoration-color: initial;&quot;&gt;&lt;font color=&quot;#ffffff&quot; style=&quot;forced-color-adjust: none; font-size: 15px; background-color: rgb(0, 0, 0);&quot;&gt;Filtreler&lt;/font&gt;&lt;/b&gt;" style="html=1;whiteSpace=wrap;fillColor=#000000;strokeColor=#FFFFFF;rounded=1;" vertex="1" parent="1">
          <mxGeometry x="555.0999999999999" y="250" width="80" height="30" as="geometry" />
        </mxCell>
        <mxCell id="PhJZ9zm9h-7gy4Xe6_vl-25" value="" style="sketch=0;html=1;aspect=fixed;strokeColor=none;shadow=0;fillColor=#CC0066;verticalAlign=top;labelPosition=center;verticalLabelPosition=bottom;shape=mxgraph.gcp2.maps_api;fillStyle=auto;" vertex="1" parent="1">
          <mxGeometry x="339.99999999999994" y="610" width="18.3" height="30" as="geometry" />
        </mxCell>
        <mxCell id="PhJZ9zm9h-7gy4Xe6_vl-26" value="" style="html=1;verticalLabelPosition=bottom;labelBackgroundColor=#ffffff;verticalAlign=top;shadow=0;dashed=0;strokeWidth=1;shape=mxgraph.ios7ui.onOffButton;buttonState=on;strokeColor=#38D145;strokeColor2=#aaaaaa;fillColor=#38D145;fillColor2=#ffffff;" vertex="1" parent="1">
          <mxGeometry x="570" y="320" width="50" height="20" as="geometry" />
        </mxCell>
        <mxCell id="PhJZ9zm9h-7gy4Xe6_vl-36" value="" style="rounded=0;whiteSpace=wrap;html=1;strokeColor=none;" vertex="1" parent="1">
          <mxGeometry x="468.3" y="620" width="120" height="60" as="geometry" />
        </mxCell>
        <mxCell id="PhJZ9zm9h-7gy4Xe6_vl-37" value="" style="rounded=1;whiteSpace=wrap;html=1;strokeColor=none;" vertex="1" parent="1">
          <mxGeometry x="520.85" y="620" width="120" height="60" as="geometry" />
        </mxCell>
        <mxCell id="PhJZ9zm9h-7gy4Xe6_vl-35" value="" style="rounded=0;whiteSpace=wrap;html=1;strokeColor=none;" vertex="1" parent="1">
          <mxGeometry x="340" y="620" width="128.3" height="60" as="geometry" />
        </mxCell>
        <mxCell id="PhJZ9zm9h-7gy4Xe6_vl-32" value="Blog" style="html=1;whiteSpace=wrap;strokeColor=none;fillColor=#0079D6;labelPosition=center;verticalLabelPosition=middle;verticalAlign=top;align=center;fontSize=12;outlineConnect=0;spacingTop=-6;fontColor=#FFFFFF;sketch=0;shape=mxgraph.sitemap.blog;" vertex="1" parent="1">
          <mxGeometry x="340" y="620" width="100" height="60" as="geometry" />
        </mxCell>
        <mxCell id="PhJZ9zm9h-7gy4Xe6_vl-39" value="Search" style="html=1;whiteSpace=wrap;strokeColor=none;fillColor=#0079D6;labelPosition=center;verticalLabelPosition=middle;verticalAlign=top;align=center;fontSize=12;outlineConnect=0;spacingTop=-6;fontColor=#FFFFFF;sketch=0;shape=mxgraph.sitemap.search;" vertex="1" parent="1">
          <mxGeometry x="440" y="620" width="100" height="60" as="geometry" />
        </mxCell>
        <mxCell id="PhJZ9zm9h-7gy4Xe6_vl-40" value="Profile" style="html=1;whiteSpace=wrap;strokeColor=none;fillColor=#0079D6;labelPosition=center;verticalLabelPosition=middle;verticalAlign=top;align=center;fontSize=12;outlineConnect=0;spacingTop=-6;fontColor=#FFFFFF;sketch=0;shape=mxgraph.sitemap.profile;" vertex="1" parent="1">
          <mxGeometry x="540.85" y="620" width="100" height="60" as="geometry" />
        </mxCell>
        <mxCell id="PhJZ9zm9h-7gy4Xe6_vl-41" value="Map" style="html=1;whiteSpace=wrap;strokeColor=#FFFFFF;fillColor=#0079D6;labelPosition=center;verticalLabelPosition=middle;verticalAlign=top;align=center;fontSize=12;outlineConnect=0;spacingTop=-6;fontColor=#FFFFFF;sketch=0;shape=mxgraph.sitemap.map;strokeWidth=3;" vertex="1" parent="1">
          <mxGeometry x="250" y="620" width="90" height="60" as="geometry" />
        </mxCell>
        <mxCell id="PhJZ9zm9h-7gy4Xe6_vl-42" value="" style="strokeWidth=1;html=1;shadow=0;dashed=0;shape=mxgraph.android.statusBar;align=center;fillColor=#000000;strokeColor=#ffffff;fontColor=#ffffff;fontSize=10;sketch=0;" vertex="1" parent="1">
          <mxGeometry x="249.15" y="170" width="390.85" height="30" as="geometry" />
        </mxCell>
        <mxCell id="PhJZ9zm9h-7gy4Xe6_vl-43" value="" style="shape=rect;fillColor=#F6F6F6;strokeColor=none;" vertex="1" parent="1">
          <mxGeometry x="250" y="200" width="390" height="30" as="geometry" />
        </mxCell>
        <mxCell id="PhJZ9zm9h-7gy4Xe6_vl-44" value="" style="html=1;strokeWidth=1;shadow=0;dashed=0;shape=mxgraph.ios7ui.marginRect;rx=3;ry=3;rectMargin=5;fillColor=#E4E4E4;strokeColor=none;" vertex="1" parent="PhJZ9zm9h-7gy4Xe6_vl-43">
          <mxGeometry width="390" height="30" as="geometry" />
        </mxCell>
        <mxCell id="PhJZ9zm9h-7gy4Xe6_vl-45" value="Search" style="shape=mxgraph.ios7.icons.looking_glass;strokeColor=#878789;fillColor=none;fontColor=#878789;labelPosition=right;verticalLabelPosition=middle;align=left;verticalAlign=middle;fontSize=18;fontStyle=0;spacingTop=2;sketch=0;html=1;" vertex="1" parent="PhJZ9zm9h-7gy4Xe6_vl-43">
          <mxGeometry x="0.5" y="0.5" width="6" height="6" relative="1" as="geometry">
            <mxPoint x="-31" y="-3" as="offset" />
          </mxGeometry>
        </mxCell>
      </root>
    </mxGraphModel>
  </diagram>
</mxfile>
